<svg
            width="20"
            height="20"
            viewBox="0 0 20 20"
            fill="none"
            xmlns="http://www.w3.org/2000/svg"
          >
            <path
              d="M16.6668 8.33329C16.6668 13.3333 10.0002 18.3333 10.0002 18.3333C10.0002 18.3333 3.3335 13.3333 3.3335 8.33329C3.3335 6.56518 4.03588 4.86949 5.28612 3.61925C6.53636 2.36901 8.23205 1.66663 10.0002 1.66663C11.7683 1.66663 13.464 2.36901 14.7142 3.61925C15.9645 4.86949 16.6668 6.56518 16.6668 8.33329Z"
              stroke="#A1A1AA"
              style="
                stroke: #a1a1aa;
                stroke: color(display-p3 0.6314 0.6314 0.6667);
                stroke-opacity: 1;
              "
              stroke-width="1.25"
              stroke-linecap="round"
              stroke-linejoin="round"
            />
            <path
              d="M10.0002 10.8333C11.3809 10.8333 12.5002 9.714 12.5002 8.33329C12.5002 6.95258 11.3809 5.83329 10.0002 5.83329C8.61945 5.83329 7.50016 6.95258 7.50016 8.33329C7.50016 9.714 8.61945 10.8333 10.0002 10.8333Z"
              stroke="#A1A1AA"
              style="
                stroke: #a1a1aa;
                stroke: color(display-p3 0.6314 0.6314 0.6667);
                stroke-opacity: 1;
              "
              stroke-width="1.25"
              stroke-linecap="round"
              stroke-linejoin="round"
            />
          </svg>