<svg
              width="20"
              height="20"
              viewBox="0 0 20 20"
              fill="none"
              xmlns="http://www.w3.org/2000/svg"
            >
              <path
                d="M10.4882 2.15502C10.1757 1.84244 9.75183 1.66678 9.30984 1.66669H3.33317C2.89114 1.66669 2.46722 1.84228 2.15466 2.15484C1.8421 2.4674 1.6665 2.89133 1.6665 3.33335V9.31002C1.6666 9.75201 1.84225 10.1759 2.15484 10.4884L9.40817 17.7417C9.78693 18.1181 10.2992 18.3293 10.8332 18.3293C11.3671 18.3293 11.8794 18.1181 12.2582 17.7417L17.7415 12.2584C18.1179 11.8796 18.3291 11.3673 18.3291 10.8334C18.3291 10.2994 18.1179 9.78712 17.7415 9.40835L10.4882 2.15502Z"
                stroke="#A1A1AA"
                style="
                  stroke: #a1a1aa;
                  stroke: color(display-p3 0.6314 0.6314 0.6667);
                  stroke-opacity: 1;
                "
                stroke-width="1.25"
                stroke-linecap="round"
                stroke-linejoin="round"
              />
              <path
                d="M6.24984 6.66669C6.47996 6.66669 6.6665 6.48014 6.6665 6.25002C6.6665 6.0199 6.47996 5.83335 6.24984 5.83335C6.01972 5.83335 5.83317 6.0199 5.83317 6.25002C5.83317 6.48014 6.01972 6.66669 6.24984 6.66669Z"
                stroke="#A1A1AA"
                style="
                  stroke: #a1a1aa;
                  stroke: color(display-p3 0.6314 0.6314 0.6667);
                  stroke-opacity: 1;
                "
                stroke-width="1.25"
                stroke-linecap="round"
                stroke-linejoin="round"
              />
            </svg>